<?xml version="1.0" encoding="utf-8"?>
<svg version="1.2" width="240" height="240" baseProfile="tiny-ps" xmlns="http://www.w3.org/2000/svg">
  <title>Email Deliverability</title>
  <path d="M0 0 C24.74294829 9.14326128 49.26215677 18.87623542 73.78027344 28.60180664 C92.82045736 36.15373027 111.89623905 43.610498 131 51 C131 54 131 54 128.98828125 56.0859375 C128.10527344 56.84132812 127.22226563 57.59671875 126.3125 58.375 C122.73959448 61.48165402 119.29126735 64.59902374 116 68 C119.96 69.65 123.92 71.3 128 73 C128 73.99 128 74.98 128 76 C125.8125 78.04296875 125.8125 78.04296875 123 80.1875 C122.071875 80.90292969 121.14375 81.61835937 120.1875 82.35546875 C119.465625 82.89816406 118.74375 83.44085938 118 84 C121.3 85.65 124.6 87.3 128 89 C126.22007575 92.55984851 125.57019246 93.64366523 122.68359375 95.9609375 C121.67353271 96.7813855 121.67353271 96.7813855 120.64306641 97.6184082 C119.91522949 98.1980835 119.18739258 98.77775879 118.4375 99.375 C116.89176254 100.62609882 115.34619448 101.87740695 113.80078125 103.12890625 C113.00623535 103.76844238 112.21168945 104.40797852 111.39306641 105.06689453 C107.61337981 108.12010392 103.87064147 111.21770444 100.125 114.3125 C94.73847425 118.75103118 89.34237321 123.17757311 83.9375 127.59375 C80.11888852 130.72176153 76.30945577 133.86084917 72.5 137 C67.83926544 140.84064015 63.17669799 144.67879554 58.5 148.5 C50.98156039 154.64422331 43.49323 160.8250837 36 167 C34.5052261 168.23179239 33.01043453 169.46356334 31.515625 170.6953125 C30.78577393 171.29674072 30.05592285 171.89816895 29.30395508 172.51782227 C27.1709495 174.27465408 25.03668764 176.02995076 22.90234375 177.78515625 C20.47122274 179.78513083 18.04629403 181.79204648 15.62890625 183.80859375 C14.65824219 184.61425781 13.68757813 185.41992188 12.6875 186.25 C11.86636719 186.93578125 11.04523438 187.6215625 10.19921875 188.328125 C8.18291288 189.86094722 6.27121808 190.90800525 4 192 C2.17102746 184.27917861 0.89199793 176.50642774 -0.33837891 168.67114258 C-0.56504379 167.24110862 -0.79194342 165.81111186 -1.01905823 164.38114929 C-1.63113659 160.52232358 -2.23961181 156.66293819 -2.847157 152.80339646 C-3.35565813 149.57489637 -3.86581934 146.34665943 -4.37593496 143.1184141 C-5.57912341 135.50359466 -6.77925348 127.88829746 -7.97753906 120.27270508 C-9.21249071 112.42447935 -10.45294557 104.57713714 -11.69603598 96.73019677 C-12.76520426 89.97975623 -13.83080359 83.22875878 -14.8935827 76.47730941 C-15.52750872 72.45050497 -16.16281382 68.42393044 -16.8016243 64.39789772 C-17.40164102 60.61544202 -17.99719716 56.83231038 -18.58935356 53.04861641 C-18.8070517 51.66246316 -19.02631637 50.27655487 -19.24728203 48.89091873 C-19.54922969 46.99585245 -19.8449055 45.09979005 -20.14028931 43.20368958 C-20.30730158 42.1442555 -20.47431385 41.08482141 -20.6463871 39.99328327 C-21.00401038 36.96605273 -21.06263792 34.04525002 -21 31 C-19.54096742 31.30921884 -18.08279278 31.62248799 -16.625 31.9375 C-15.81289063 32.11152344 -15.00078125 32.28554687 -14.1640625 32.46484375 C-12 33 -12 33 -10 34 C-10.144375 33.25234375 -10.28875 32.5046875 -10.4375 31.734375 C-10.623125 30.74953125 -10.80875 29.7646875 -11 28.75 C-11.185625 27.77546875 -11.37125 26.8009375 -11.5625 25.796875 C-12 23 -12 23 -12 19 C-6.72250715 19.53851968 -2.74354436 20.77343836 2 23 C1.855625 22.01 1.71125 21.02 1.5625 20 C1.37471228 18.66670716 1.18722863 17.33337147 1 16 C0.814375 14.700625 0.62875 13.40125 0.4375 12.0625 C-0.06876696 8.02027473 -0.07269086 4.07068819 0 0 Z M8 11 C8.11455681 12.91731918 8.24206258 14.8338675 8.375 16.75 C8.44460937 17.81734375 8.51421875 18.8846875 8.5859375 19.984375 C8.98851566 22.91635937 9.44940689 24.52299105 11 27 C12.66468121 28.11135862 12.66468121 28.11135862 14.68798828 28.80493164 C15.45558975 29.10434662 16.22319122 29.4037616 17.01405334 29.71224976 C17.85761887 30.0250589 18.70118439 30.33786804 19.5703125 30.66015625 C20.45911606 31.0029361 21.34791962 31.34571594 22.26365662 31.69888306 C25.21261145 32.83316602 28.16856216 33.94788222 31.125 35.0625 C34.23201708 36.24942489 37.33730394 37.44079716 40.44245911 38.63258362 C42.6080105 39.46348784 44.7741914 40.29275306 46.94096375 41.12046814 C54.84713933 44.1474736 62.71005354 47.27214943 70.55859375 50.4453125 C72.7569626 51.33073743 74.95536707 52.21607391 77.15380859 53.10131836 C80.34869678 54.38836077 83.54183259 55.6790546 86.73028564 56.98196411 C89.69195755 58.19099051 92.659587 59.38412346 95.62890625 60.57421875 C96.50711533 60.9378653 97.3853244 61.30151184 98.29014587 61.67617798 C104.0310449 64.05331791 104.0310449 64.05331791 110 63 C112.51444569 61.17946003 112.51444569 61.17946003 114.8125 58.9375 C115.99779297 57.83728516 115.99779297 57.83728516 117.20703125 56.71484375 C117.79871094 56.14894531 118.39039063 55.58304688 119 55 C115.74882986 52.83255324 112.43038921 51.46875825 108.8203125 50.04296875 C108.08040573 49.74758209 107.34049896 49.45219543 106.57817078 49.14785767 C104.0951235 48.15766245 101.61009406 47.17254604 99.125 46.1875 C97.36928462 45.48877698 95.61367176 44.78979629 93.8581543 44.09057617 C88.98147484 42.14955636 84.10282098 40.2135442 79.22369385 38.27868652 C75.85759742 36.94351565 72.4919798 35.60714366 69.12646484 34.27050781 C62.02253905 31.44933256 54.91777655 28.63027148 47.8125 25.8125 C46.67097473 25.35974701 45.52944946 24.90699402 44.35333252 24.44052124 C37.23848782 21.6195502 30.12096217 18.80549216 23 16 C21.86398346 15.55137604 21.86398346 15.55137604 20.70501709 15.09368896 C18.82956567 14.35426387 16.9520082 13.62018604 15.07421875 12.88671875 C14.11475342 12.51119873 13.15528809 12.13567871 12.16674805 11.7487793 C10.06702866 10.89112532 10.06702866 10.89112532 8 11 Z M-3 29 C-3.23428313 33.7897321 -3.23428313 33.7897321 -1 38 C2.05429073 39.21284876 2.05429073 39.21284876 5 40 C4.95996945 35.89299223 4.95996945 35.89299223 4 32 C1.71019091 30.31016493 -0.21434833 29.81037139 -3 29 Z M11 35 C11.10407917 38.40080577 11.10407917 38.40080577 12 42 C15.29505682 44.37226725 18.84320813 45.85578539 22.60620117 47.34082031 C24.26029243 47.9973056 24.26029243 47.9973056 25.94779968 48.66705322 C27.13420547 49.13270691 28.32061127 49.5983606 29.54296875 50.078125 C30.79322206 50.57236314 32.04332614 51.0669789 33.29328918 51.56195068 C36.58755789 52.86520366 39.88391973 54.16307978 43.1807251 55.4598999 C47.11717363 57.00974407 51.0507624 58.56683267 54.98484993 60.12265778 C58.15730646 61.37654832 61.33103021 62.6270229 64.50778198 63.86999512 C69.92520921 65.99099215 75.33295154 68.12341678 80.70166016 70.36523438 C81.53538651 70.70762146 82.36911285 71.05000854 83.22810364 71.402771 C84.71745349 72.01616565 86.20155866 72.64254855 87.67851257 73.28521729 C90.73808594 74.53172882 92.57776085 75.09624222 95.84057617 74.35253906 C98.27371027 73.03436738 98.27371027 73.03436738 100 70 C90.21179236 65.31348317 80.11601716 61.46732539 70 57.5625 C66.35195898 56.14946311 62.70502419 54.73359377 59.05859375 53.31640625 C57.68084023 52.78111801 57.68084023 52.78111801 56.2752533 52.23501587 C50.03492248 49.80550481 43.81088993 47.33779677 37.59765625 44.83984375 C36.78372406 44.51270889 35.96979187 44.18557404 35.13119507 43.848526 C31.26558651 42.29319446 27.40226026 40.73239117 23.54101562 39.16625977 C22.16408645 38.61078046 20.78713467 38.05535721 19.41015625 37.5 C18.21527588 37.0153125 17.02039551 36.530625 15.78930664 36.03125 C13.18299 34.8844086 13.18299 34.8844086 11 35 Z M-1 46 C-0.42080341 53.23057597 0.42689151 60.36025436 1.58227539 67.52026367 C1.73847855 68.50698059 1.8946817 69.49369751 2.05561829 70.51031494 C2.56619369 73.73008997 3.08187649 76.9490237 3.59765625 80.16796875 C3.95526848 82.41664163 4.31255817 84.66536582 4.66954041 86.91413879 C5.60503315 92.80163215 6.54487653 98.6884228 7.48565674 104.57507324 C8.44686487 110.59454889 9.40391657 116.61468518 10.36132812 122.63476562 C12.23683976 134.42382387 14.11695258 146.21214325 16 158 C19.13072946 156.14713242 22.02489057 154.29130885 24.8203125 151.9609375 C25.51447266 151.38537109 26.20863281 150.80980469 26.92382812 150.21679688 C27.65021484 149.60900391 28.37660156 149.00121094 29.125 148.375 C30.65874561 147.10143176 32.19259959 145.82799401 33.7265625 144.5546875 C34.46551758 143.93948242 35.20447266 143.32427734 35.96582031 142.69042969 C38.46582528 140.61289316 40.98075759 138.5541515 43.5 136.5 C48.1766981 132.67879546 52.83925148 128.84062334 57.5 125 C63.98903037 119.65312427 70.48844847 114.31943671 77 109 C79.74152601 106.75729033 82.48270688 104.51416696 85.22265625 102.26953125 C87.14346528 100.699925 89.06820935 99.13512646 90.99609375 97.57421875 C91.96675781 96.78660156 92.93742187 95.99898437 93.9375 95.1875 C94.81277344 94.47980469 95.68804687 93.77210938 96.58984375 93.04296875 C98.85037361 91.1268308 100.9393349 89.12760086 103 87 C99.22914245 84.65033222 99.22914245 84.65033222 94.98193359 84.26416016 C91.64586655 85.50275415 89.23563706 88.02832736 86.625 90.375 C81.8558326 94.56805999 77.02741746 98.62018384 72 102.5 C66.54034337 106.72930069 61.26801746 111.13550231 56.0456543 115.65356445 C50.780503 120.20670768 45.40594516 124.61508987 40 129 C38.04108497 130.60345628 36.08274706 132.20761789 34.125 133.8125 C32.41861622 135.21071596 30.71036911 136.60666193 29 138 C27.66582031 139.11955078 27.66582031 139.11955078 26.3046875 140.26171875 C24 142 24 142 22 142 C17 111 12 80 7 49 C4.36 48.01 1.72 47.02 -1 46 Z M14 53 C17.73943944 79.04224351 21.81946189 105.02521316 26 131 C27.26368257 130.05377978 28.52714939 129.10727143 29.79052734 128.16064453 C30.49414398 127.63358917 31.19776062 127.10653381 31.92269897 126.56350708 C40.43919484 120.15345798 48.69165769 113.4737137 56.74194336 106.48852539 C61.3620475 102.49881712 66.11142379 98.70380665 70.93017578 94.95776367 C76.36532919 90.73240018 81.69339905 86.38606813 87 82 C85.43357189 78.86714378 82.31590884 78.37501358 79.1875 77.19921875 C78.47859116 76.92621445 77.76968231 76.65321014 77.03929138 76.37193298 C74.6952752 75.47068095 72.3477056 74.57909224 70 73.6875 C67.55442208 72.75079058 65.1097404 71.81177005 62.66514587 70.87249756 C60.98336866 70.22640958 59.30128607 69.58111599 57.61891174 68.93658447 C51.85372803 66.72480893 46.1071641 64.469739 40.37109375 62.18359375 C39.61180573 61.88150497 38.8525177 61.5794162 38.07022095 61.26817322 C35.13804047 60.1011442 32.20606447 58.93371368 29.27758789 57.75741577 C27.26884287 56.95098635 25.25774369 56.15071199 23.24609375 55.3515625 C22.10841553 54.89604004 20.9707373 54.44051758 19.79858398 53.97119141 C17.02135344 52.83607537 17.02135344 52.83607537 14 53 Z M103 77 C103 77.66 103 78.32 103 79 C106.38766195 80.60180092 106.38766195 80.60180092 110.0625 80.875 C112.60919325 79.72488047 114.14176021 78.05733691 116 76 C110.82585591 73.7003804 107.37655473 72.93605632 103 77 Z M-13 42 C-10.28327623 59.43752504 -7.56273889 76.8744502 -4.83763218 94.31066704 C-3.57247114 102.40621017 -2.30856934 110.50194619 -1.04760742 118.59814453 C0.05116471 125.65295773 1.15227457 132.70740134 2.25621945 139.76140702 C2.84092387 143.49810037 3.42443822 147.23497099 4.00515556 150.97228622 C4.55137033 154.48731051 5.10070078 158.00183343 5.65246201 161.51599121 C5.95152596 163.42609095 6.24725065 165.33671257 6.54289246 167.24734497 C6.72096436 168.37759094 6.89903625 169.50783691 7.08250427 170.67233276 C7.2364437 171.65865126 7.39038313 172.64496975 7.54898739 173.66117668 C7.89302891 176.01086166 7.89302891 176.01086166 9 178 C11.82483856 176.68770697 14.12347688 175.22892161 16.51171875 173.234375 C17.17816406 172.68136719 17.84460938 172.12835938 18.53125 171.55859375 C19.2428125 170.96175781 19.954375 170.36492187 20.6875 169.75 C22.22257142 168.47385629 23.75773008 167.19781751 25.29296875 165.921875 C26.07591309 165.26896484 26.85885742 164.61605469 27.66552734 163.94335938 C31.26466802 160.94721215 34.88263794 157.97409761 38.5 155 C39.91677018 153.83345904 41.33343654 152.66679198 42.75 151.5 C45.58333333 149.16666667 48.41666667 146.83333333 51.25 144.5 C51.9517334 143.92209717 52.6534668 143.34419434 53.37646484 142.7487793 C54.78822989 141.5861588 56.20001364 140.42356102 57.61181641 139.26098633 C61.22863422 136.28260241 64.84509182 133.30378282 68.4609375 130.32421875 C75.31111224 124.68006069 82.16525317 119.04115472 89.0390625 113.42578125 C93.72704809 109.58509648 98.40182577 105.72836249 103.07617188 101.87109375 C103.77033203 101.29875 104.46449219 100.72640625 105.1796875 100.13671875 C105.83678711 99.59321777 106.49388672 99.0497168 107.17089844 98.48974609 C108.75792161 97.19716529 110.38005922 95.94792888 112.0078125 94.70703125 C112.66523438 94.14371094 113.32265625 93.58039063 114 93 C114 92.34 114 91.68 114 91 C107.90042466 91.29001048 105.0166824 94.10794698 100.75 98.0625 C99.41008366 99.26439293 98.06893927 100.46491821 96.7265625 101.6640625 C96.08235352 102.24446289 95.43814453 102.82486328 94.77441406 103.42285156 C92.61716822 105.3402715 90.39293208 107.15276995 88.125 108.9375 C83.68007989 112.44200726 79.30342736 116.02298743 74.9375 119.625 C74.20934082 120.22562256 73.48118164 120.82624512 72.73095703 121.44506836 C71.23308426 122.68096885 69.73536448 123.91705479 68.23779297 125.15332031 C64.66088205 128.1050718 61.08031669 131.05238133 57.5 134 C56.08331453 135.16664383 54.66664789 136.33331053 53.25 137.5 C50.41666667 139.83333333 47.58333333 142.16666667 44.75 144.5 C44.04762207 145.07854736 43.34524414 145.65709473 42.62158203 146.25317383 C41.21677904 147.40983268 39.81151183 148.56592797 38.40576172 149.72143555 C34.67841267 152.78655863 30.96161065 155.86347505 27.2578125 158.95703125 C26.09475586 159.92479492 26.09475586 159.92479492 24.90820312 160.91210938 C23.41694648 162.15333497 21.92853034 163.39798345 20.44335938 164.64648438 C19.77369141 165.20271484 19.10402344 165.75894531 18.4140625 166.33203125 C17.8257666 166.82421143 17.2374707 167.3163916 16.63134766 167.82348633 C15 169 15 169 12 170 C8.6215715 150.76651915 5.40558838 131.51206013 2.38671875 112.21875 C2.23532566 111.25153015 2.08393257 110.2843103 1.92795181 109.28778076 C0.84431934 102.35906198 -0.2345673 95.42960746 -1.3125 88.5 C-2.40849401 81.45492309 -3.50618993 74.41011973 -4.6082058 67.36598206 C-5.04293442 64.58150958 -5.47457987 61.79657067 -5.90608215 59.01159668 C-6.16941369 57.32606672 -6.43288912 55.64055923 -6.6965332 53.95507812 C-6.814422 53.1886348 -6.93231079 52.42219147 -7.05377197 51.63252258 C-7.52346153 48.6469493 -8.04212098 45.87363706 -9 43 C-11.01508358 42.26676204 -11.01508358 42.26676204 -13 42 Z " fill="#01E864" transform="translate(69,35)" />
  <path d="M0 0 C1.41910652 0.25774371 2.83524899 0.53183165 4.25 0.8125 C5.03890625 0.96332031 5.8278125 1.11414063 6.640625 1.26953125 C9.38285751 2.1185337 10.98293703 2.94626316 13 5 C13.390625 7.48046875 13.390625 7.48046875 13.25 10.1875 C13.21390625 11.08855469 13.1778125 11.98960938 13.140625 12.91796875 C13.07101563 13.94857422 13.07101563 13.94857422 13 15 C12.67 14.01 12.34 13.02 12 12 C11.01 12 10.02 12 9 12 C9.16234257 13.02540421 9.16234257 13.02540421 9.32796478 14.07152367 C11.95846626 30.68724239 14.58727233 47.30322835 17.21417999 63.91951561 C18.4845611 71.95493984 19.7555208 79.99027176 21.02783203 88.02539062 C22.13647486 95.02689203 23.24404288 102.02856246 24.35030794 109.03043997 C24.93637416 112.73958011 25.52298681 116.448632 26.11088562 120.15748215 C26.76635052 124.29271335 27.41941604 128.42831995 28.07226562 132.56396484 C28.36681389 134.41865135 28.36681389 134.41865135 28.66731262 136.31080627 C28.84400986 137.43263809 29.02070709 138.55446991 29.20275879 139.71029663 C29.35762001 140.68924078 29.51248123 141.66818493 29.67203522 142.67679405 C30 145 30 145 30 147 C42.03971901 137.41523454 53.90238663 127.61668795 65.77832031 117.83056641 C70.05490022 114.30685254 74.33273337 110.78466033 78.61035156 107.26220703 C82.22764791 104.28340438 85.84460131 101.30418701 89.4609375 98.32421875 C101.70619066 88.23482002 101.70619066 88.23482002 107.5 83.5 C108.33789062 82.81421875 109.17578125 82.1284375 110.0390625 81.421875 C111.70318097 80.06072269 113.36780017 78.70018018 115.03417969 77.34179688 C117.31657435 75.4804458 119.59591865 73.61540586 121.875 71.75 C122.60138672 71.15896484 123.32777344 70.56792969 124.07617188 69.95898438 C127.92413779 66.80415252 131.5558967 63.59267246 135 60 C133.68 59.67 132.36 59.34 131 59 C133.0625 56.4375 133.0625 56.4375 136 54 C141.0170178 54 144.66710645 55.5693524 149 58 C147.65904685 61.07010955 146.28912959 62.86929382 143.68359375 64.9609375 C142.67353271 65.7813855 142.67353271 65.7813855 141.64306641 66.6184082 C140.91522949 67.1980835 140.18739258 67.77775879 139.4375 68.375 C137.89176254 69.62609882 136.34619448 70.87740695 134.80078125 72.12890625 C134.00623535 72.76844238 133.21168945 73.40797852 132.39306641 74.06689453 C128.61337981 77.12010392 124.87064147 80.21770444 121.125 83.3125 C115.73847425 87.75103118 110.34237321 92.17757311 104.9375 96.59375 C101.11888852 99.72176153 97.30945577 102.86084917 93.5 106 C88.83926544 109.84064015 84.17669799 113.67879554 79.5 117.5 C71.98156039 123.64422331 64.49323 129.8250837 57 136 C55.5052261 137.23179239 54.01043453 138.46356334 52.515625 139.6953125 C51.78577393 140.29674072 51.05592285 140.89816895 50.30395508 141.51782227 C48.1709495 143.27465408 46.03668764 145.02995076 43.90234375 146.78515625 C41.47122274 148.78513083 39.04629403 150.79204648 36.62890625 152.80859375 C35.65824219 153.61425781 34.68757813 154.41992188 33.6875 155.25 C32.86636719 155.93578125 32.04523438 156.6215625 31.19921875 157.328125 C29.18291288 158.86094722 27.27121808 159.90800525 25 161 C23.17102746 153.27917861 21.89199793 145.50642774 20.66162109 137.67114258 C20.43495621 136.24110862 20.20805658 134.81111186 19.98094177 133.38114929 C19.36886341 129.52232358 18.76038819 125.66293819 18.152843 121.80339646 C17.64434187 118.57489637 17.13418066 115.34665943 16.62406504 112.1184141 C15.42087659 104.50359466 14.22074652 96.88829746 13.02246094 89.27270508 C11.78750929 81.42447935 10.54705443 73.57713714 9.30396402 65.73019677 C8.23479574 58.97975623 7.16919641 52.22875878 6.1064173 45.47730941 C5.47249128 41.45050497 4.83718618 37.42393044 4.1983757 33.39789772 C3.59835898 29.61544202 3.00280284 25.83231038 2.41064644 22.04861641 C2.1929483 20.66246316 1.97368363 19.27655487 1.75271797 17.89091873 C1.45077031 15.99585245 1.1550945 14.09979005 0.85971069 12.20368958 C0.69269842 11.1442555 0.52568615 10.08482141 0.3536129 8.99328327 C-0.00401038 5.96605273 -0.06263792 3.04525002 0 0 Z " fill="#ED6E00" transform="translate(48,66)" />
  <path d="M0 0 C2.8125 0.9375 2.8125 0.9375 6 3 C6.59962463 4.99905396 6.59962463 4.99905396 7.04516602 7.32470703 C7.96030689 10.27620522 8.52796865 11.65409326 11.04318237 13.49725342 C13.80881882 14.79114919 16.58474796 15.85285093 19.46484375 16.8671875 C20.51812363 17.26929443 21.5714035 17.67140137 22.65660095 18.08569336 C26.07229738 19.38144773 29.50352588 20.62859015 32.9375 21.875 C35.27543361 22.74961298 37.61218767 23.62738546 39.94775391 24.50830078 C44.53962551 26.2371739 49.13700544 27.94999436 53.73876953 29.65234375 C59.010396 31.6135282 64.23454654 33.66703336 69.43359375 35.8125 C70.09707321 36.08442169 70.76055267 36.35634338 71.44413757 36.63650513 C74.36667293 37.83567759 77.28268714 39.04782357 80.19116211 40.28076172 C81.17737549 40.68053223 82.16358887 41.08030273 83.1796875 41.4921875 C84.00194824 41.83620605 84.82420898 42.18022461 85.67138672 42.53466797 C88.73259734 43.14639657 90.27038853 42.43220001 93 41 C93.99 40.01 93.99 40.01 95 39 C98.625 39.375 98.625 39.375 102 40 C102 41.32 102 42.64 102 44 C100.02 44.99 100.02 44.99 98 46 C98 46.66 98 47.32 98 48 C100.31 48.66 102.62 49.32 105 50 C103.84826645 52.46800047 102.95216435 54.04783565 101 56 C97.72293038 55.69084249 94.67815045 55.20676625 91.52734375 54.24609375 C88.94688639 53.73073441 88.94688639 53.73073441 86.9296875 55.3359375 C86.25164062 56.00882813 85.57359375 56.68171875 84.875 57.375 C81.55096539 60.53943692 78.19235237 63.54794458 74.625 66.4375 C73.69171875 67.19546875 72.7584375 67.9534375 71.796875 68.734375 C70.87390625 69.48203125 69.9509375 70.2296875 69 71 C67.29072718 72.39468273 65.58240549 73.79053187 63.875 75.1875 C62.9675 75.93 62.06 76.6725 61.125 77.4375 C52.83578562 84.22944791 44.57318763 91.05396101 36.3046875 97.87109375 C35.54172363 98.49991455 34.77875977 99.12873535 33.99267578 99.77661133 C32.53506241 100.97796021 31.07769201 102.17960399 29.62060547 103.3815918 C28.32332183 104.45069336 27.02353166 105.51676413 25.72070312 106.57910156 C24.18977635 107.84328911 22.69369194 109.14940514 21.203125 110.4609375 C20.47609375 110.96882813 19.7490625 111.47671875 19 112 C17.515 111.505 17.515 111.505 16 111 C14.76405484 103.36543479 13.52924504 95.7306868 12.29573441 88.09572792 C11.7224133 84.54729586 11.14875655 80.99891887 10.57421875 77.45068359 C9.03909981 67.96877321 7.51303978 58.48545987 6 49 C5.79528076 47.7171814 5.59056152 46.43436279 5.37963867 45.1126709 C4.80557681 41.50033001 4.23750512 37.88710715 3.671875 34.2734375 C3.50133606 33.20114899 3.33079712 32.12886047 3.15509033 31.02407837 C3.00175232 30.03563934 2.84841431 29.04720032 2.69042969 28.02880859 C2.55626648 27.1733847 2.42210327 26.31796082 2.28387451 25.43661499 C1.99245531 22.93524078 1.95032851 20.51592775 2 18 C1.36191406 17.79503906 0.72382812 17.59007813 0.06640625 17.37890625 C-0.75988281 17.10949219 -1.58617188 16.84007813 -2.4375 16.5625 C-3.26121094 16.29566406 -4.08492188 16.02882813 -4.93359375 15.75390625 C-7 15 -7 15 -8 14 C-8.07205511 12.31391034 -8.08386068 10.62499341 -8.0625 8.9375 C-8.05347656 8.01839844 -8.04445313 7.09929687 -8.03515625 6.15234375 C-8.02355469 5.44207031 -8.01195313 4.73179688 -8 4 C-7.21625 4.495 -6.4325 4.99 -5.625 5.5 C-3.21447673 7.16537965 -3.21447673 7.16537965 -1 7 C-1.020625 6.030625 -1.04125 5.06125 -1.0625 4.0625 C-1 1 -1 1 0 0 Z M9 22 C12.73943944 48.04224351 16.81946189 74.02521316 21 100 C22.26368257 99.05377978 23.52714939 98.10727143 24.79052734 97.16064453 C25.49414398 96.63358917 26.19776062 96.10653381 26.92269897 95.56350708 C35.43919484 89.15345798 43.69165769 82.4737137 51.74194336 75.48852539 C56.3620475 71.49881712 61.11142379 67.70380665 65.93017578 63.95776367 C71.36532919 59.73240018 76.69339905 55.38606813 82 51 C80.43357189 47.86714378 77.31590884 47.37501358 74.1875 46.19921875 C73.47859116 45.92621445 72.76968231 45.65321014 72.03929138 45.37193298 C69.6952752 44.47068095 67.3477056 43.57909224 65 42.6875 C62.55442208 41.75079058 60.1097404 40.81177005 57.66514587 39.87249756 C55.98336866 39.22640958 54.30128607 38.58111599 52.61891174 37.93658447 C46.85372803 35.72480893 41.1071641 33.469739 35.37109375 31.18359375 C34.61180573 30.88150497 33.8525177 30.5794162 33.07022095 30.26817322 C30.13804047 29.1011442 27.20606447 27.93371368 24.27758789 26.75741577 C22.26884287 25.95098635 20.25774369 25.15071199 18.24609375 24.3515625 C17.10841553 23.89604004 15.9707373 23.44051758 14.79858398 22.97119141 C12.02135344 21.83607537 12.02135344 21.83607537 9 22 Z " fill="#E70000" transform="translate(74,66)" />
  <path d="M0 0 C24.74294829 9.14326128 49.26215677 18.87623542 73.78027344 28.60180664 C92.82045736 36.15373027 111.89623905 43.610498 131 51 C131 54 131 54 129.0234375 56.0859375 C126.35233576 58.39458886 123.6783076 60.69971179 121 63 C120.40960938 63.57234375 119.81921875 64.1446875 119.2109375 64.734375 C116.60537703 67.21453417 115.41177178 68 111.75 68 C109 67 109 67 107 64 C107.71027344 63.43410156 108.42054688 62.86820313 109.15234375 62.28515625 C110.53099609 61.18494141 110.53099609 61.18494141 111.9375 60.0625 C112.85402344 59.33160156 113.77054687 58.60070312 114.71484375 57.84765625 C116.40851269 56.48061289 116.40851269 56.48061289 118 55 C100.96811889 47.82258876 83.83840294 40.93576654 66.60821533 34.24902344 C52.85314012 28.91023798 39.13289473 23.49011312 25.4375 18 C24.55081635 17.6445813 23.66413269 17.2891626 22.75057983 16.92297363 C17.83274167 14.95107933 12.91591126 12.97669288 8 11 C8.66 15.95 9.32 20.9 10 26 C8.35 26 6.7 26 5 26 C2.1269358 22.52004134 1.42890384 19.0866214 0.8125 14.6875 C0.65394531 13.61886719 0.49539062 12.55023438 0.33203125 11.44921875 C-0.03890691 7.59582583 -0.0548547 3.86936641 0 0 Z " fill="#EE0000" transform="translate(69,35)" />
  <path d="M0 0 C2.8125 0.9375 2.8125 0.9375 6 3 C6.59962463 4.99905396 6.59962463 4.99905396 7.04516602 7.32470703 C7.96030689 10.27620522 8.52796865 11.65409326 11.04318237 13.49725342 C13.80881882 14.79114919 16.58474796 15.85285093 19.46484375 16.8671875 C20.51812363 17.26929443 21.5714035 17.67140137 22.65660095 18.08569336 C26.07229738 19.38144773 29.50352588 20.62859015 32.9375 21.875 C35.27543361 22.74961298 37.61218767 23.62738546 39.94775391 24.50830078 C44.53962551 26.2371739 49.13700544 27.94999436 53.73876953 29.65234375 C59.010396 31.6135282 64.23454654 33.66703336 69.43359375 35.8125 C70.09707321 36.08442169 70.76055267 36.35634338 71.44413757 36.63650513 C74.36667293 37.83567759 77.28268714 39.04782357 80.19116211 40.28076172 C81.17737549 40.68053223 82.16358887 41.08030273 83.1796875 41.4921875 C84.00194824 41.83620605 84.82420898 42.18022461 85.67138672 42.53466797 C88.73259734 43.14639657 90.27038853 42.43220001 93 41 C93.99 40.01 93.99 40.01 95 39 C98.625 39.375 98.625 39.375 102 40 C102 41.32 102 42.64 102 44 C100.02 44.99 100.02 44.99 98 46 C98 46.66 98 47.32 98 48 C100.31 48.66 102.62 49.32 105 50 C103.84826645 52.46800047 102.95216435 54.04783565 101 56 C95.37037669 55.88022078 91.15508265 53.77992539 86.13354492 51.37402344 C83.16709553 50.07326947 80.29996963 49.13288354 77.1875 48.25 C68.95698053 45.77268936 61.07657466 42.55304639 53.125 39.3125 C50.02946408 38.05917068 46.93265507 36.80900003 43.8359375 35.55859375 C43.0773645 35.25165588 42.3187915 34.94471802 41.53723145 34.628479 C34.06485275 31.60968983 26.55425829 28.69193462 19.01611328 25.84106445 C15.25346795 24.3936978 11.69411047 22.91180486 8.21875 20.859375 C5.33613575 19.19417551 2.9452465 18.20897943 -0.25 17.375 C-3.43359933 16.53460887 -5.19797896 15.86801403 -8 14 C-8.29296875 11.6171875 -8.29296875 11.6171875 -8.1875 8.875 C-8.16042969 7.96492188 -8.13335937 7.05484375 -8.10546875 6.1171875 C-8.07066406 5.41851562 -8.03585938 4.71984375 -8 4 C-7.21625 4.495 -6.4325 4.99 -5.625 5.5 C-3.21447673 7.16537965 -3.21447673 7.16537965 -1 7 C-1.020625 6.030625 -1.04125 5.06125 -1.0625 4.0625 C-1 1 -1 1 0 0 Z " fill="#E66B00" transform="translate(74,66)" />
  <path d="M0 0 C0 1.32 0 2.64 0 4 C-1.98 4.99 -1.98 4.99 -4 6 C-4 6.66 -4 7.32 -4 8 C-9.53846154 7.38461538 -9.53846154 7.38461538 -11.875 5.4375 C-12.24625 4.963125 -12.6175 4.48875 -13 4 C-8.46559267 -0.53440733 -6.55783615 -1.7050374 0 0 Z " fill="#E10800" transform="translate(176,106)" />
  <path d="M0 0 C2.875 0.9375 2.875 0.9375 6 3 C7.12755372 5.94416805 7.62039672 8.87809026 8 12 C5.75 12.3125 5.75 12.3125 3 12 C0.04600398 9.28551717 -0.92618131 7.76771435 -1.3125 3.75 C-1 1 -1 1 0 0 Z " fill="#D70400" transform="translate(74,66)" />
  <path d="M0 0 C1.65 0.33 3.3 0.66 5 1 C4.61328125 1.44730469 4.2265625 1.89460938 3.828125 2.35546875 C3.30734375 2.96003906 2.7865625 3.56460938 2.25 4.1875 C1.70214844 4.82171875 1.15429688 5.4559375 0.58984375 6.109375 C-0.72528424 7.67331099 -1.96705018 9.29861024 -3.1875 10.9375 C-4.0846875 11.9584375 -4.0846875 11.9584375 -5 13 C-5.99 13 -6.98 13 -8 13 C-8.33 12.34 -8.66 11.68 -9 11 C-8.28972656 10.43410156 -7.57945312 9.86820313 -6.84765625 9.28515625 C-5.92855469 8.55167969 -5.00945312 7.81820312 -4.0625 7.0625 C-3.14597656 6.33160156 -2.22945312 5.60070312 -1.28515625 4.84765625 C0.40851269 3.48061289 0.40851269 3.48061289 2 2 C1.34 1.34 0.68 0.68 0 0 Z " fill="#B30400" transform="translate(185,88)" />
</svg>